<svg width="32" height="32" viewBox="0 0 32 32" fill="none" xmlns="http://www.w3.org/2000/svg">
<path d="M26.6666 10.6667H22.6666V5.33337H3.99992C2.53325 5.33337 1.33325 6.53337 1.33325 8.00004V22.6667H3.99992C3.99992 24.88 5.78658 26.6667 7.99992 26.6667C10.2133 26.6667 11.9999 24.88 11.9999 22.6667H19.9999C19.9999 24.88 21.7866 26.6667 23.9999 26.6667C26.2133 26.6667 27.9999 24.88 27.9999 22.6667H30.6666V16L26.6666 10.6667ZM7.99992 24.6667C6.89325 24.6667 5.99992 23.7734 5.99992 22.6667C5.99992 21.56 6.89325 20.6667 7.99992 20.6667C9.10659 20.6667 9.99992 21.56 9.99992 22.6667C9.99992 23.7734 9.10659 24.6667 7.99992 24.6667ZM25.9999 12.6667L28.6132 16H22.6666V12.6667H25.9999ZM23.9999 24.6667C22.8933 24.6667 21.9999 23.7734 21.9999 22.6667C21.9999 21.56 22.8933 20.6667 23.9999 20.6667C25.1066 20.6667 25.9999 21.56 25.9999 22.6667C25.9999 23.7734 25.1066 24.6667 23.9999 24.6667Z" fill="#F8F8F8"/>
</svg>
