<svg width="32" height="32" viewBox="0 0 32 32" fill="none" xmlns="http://www.w3.org/2000/svg">
<path d="M5.33341 8H2.66675V26.6667C2.66675 28.1333 3.86675 29.3333 5.33341 29.3333H24.0001V26.6667H5.33341V8Z" fill="#F8F8F8"/>
<path d="M26.6667 2.66663H10.6667C9.2 2.66663 8 3.86663 8 5.33329V21.3333C8 22.8 9.2 24 10.6667 24H26.6667C28.1333 24 29.3333 22.8 29.3333 21.3333V5.33329C29.3333 3.86663 28.1333 2.66663 26.6667 2.66663ZM18.68 20C17.8933 20 17.28 19.3733 17.28 18.6C17.28 17.8133 17.9067 17.2133 18.68 17.2133C19.4667 17.2133 20.0667 17.8133 20.0667 18.6C20.0533 19.3733 19.4667 20 18.68 20ZM22.0133 11.7733C21.1733 13.0133 20.3733 13.3866 19.9333 14.1866C19.76 14.5066 19.6933 14.72 19.6933 15.76H17.6667C17.6667 15.2133 17.5867 14.32 18.0133 13.56C18.56 12.5866 19.5867 12.0133 20.1867 11.16C20.8267 10.2533 20.4667 8.57329 18.6667 8.57329C17.4933 8.57329 16.9067 9.46663 16.6667 10.2133L14.84 9.45329C15.3467 7.94663 16.6933 6.66663 18.6533 6.66663C20.2933 6.66663 21.4267 7.41329 22 8.34663C22.4933 9.15996 22.7733 10.6533 22.0133 11.7733Z" fill="#F8F8F8"/>
</svg>
