<svg width="48" height="48" viewBox="0 0 48 48" fill="none" xmlns="http://www.w3.org/2000/svg">
<path d="M33.6945 23.5611C36.3341 23.5611 38.4519 24.2671 40.0479 25.6789C41.6439 27.0294 42.4419 28.9324 42.4419 31.3878C42.4419 33.7818 41.6746 35.6847 40.14 37.0966C38.6053 38.5085 36.641 39.2144 34.247 39.2144C31.4846 39.2144 29.3975 38.2629 27.9857 36.36C26.5738 34.3956 25.8679 31.664 25.8679 28.165C25.8679 22.8245 27.249 18.4662 30.0114 15.09C32.7737 11.7138 36.6103 9.68806 41.5211 9.01282V15.4583C39.2499 15.7652 37.3776 16.7167 35.9044 18.3127C34.4311 19.9087 33.6945 21.6582 33.6945 23.5611ZM13.4373 23.5611C16.0769 23.5611 18.1947 24.2671 19.7907 25.6789C21.3867 27.0294 22.1848 28.9324 22.1848 31.3878C22.1848 33.7818 21.4174 35.6847 19.8828 37.0966C18.3482 38.5085 16.3838 39.2144 13.9898 39.2144C11.2275 39.2144 9.14037 38.2629 7.72851 36.36C6.31665 34.3956 5.61072 31.664 5.61072 28.165C5.61072 22.8245 6.99189 18.4662 9.75423 15.09C12.5166 11.7138 16.3531 9.68806 21.264 9.01282V15.4583C18.9927 15.7652 17.1205 16.7167 15.6472 18.3127C14.174 19.9087 13.4373 21.6582 13.4373 23.5611Z" fill="#232323"/>
</svg>
