<svg width="42" height="42" viewBox="0 0 42 42" fill="none" xmlns="http://www.w3.org/2000/svg">
<rect width="42" height="42" rx="8" fill="#F8F8F8"/>
<path d="M24.9 9C24.9 8.17157 24.2284 7.5 23.4 7.5C22.5716 7.5 21.9 8.17157 21.9 9H24.9ZM27.0571 14.7143V16.2143V14.7143ZM25.7857 27.7429C25.7857 28.5713 26.4573 29.2429 27.2857 29.2429C28.1141 29.2429 28.7857 28.5713 28.7857 27.7429H25.7857ZM17.7857 32.5429C17.7857 33.3713 18.4573 34.0429 19.2857 34.0429C20.1141 34.0429 20.7857 33.3713 20.7857 32.5429H17.7857ZM14.7143 18.5C15.5427 18.5 16.2143 17.8284 16.2143 17C16.2143 16.1716 15.5427 15.5 14.7143 15.5V18.5ZM7.5 26.6C7.5 27.4284 8.17157 28.1 9 28.1C9.82843 28.1 10.5 27.4284 10.5 26.6H7.5ZM32.4143 19.9714C32.4143 20.7999 33.0859 21.4714 33.9143 21.4714C34.7427 21.4714 35.4143 20.7999 35.4143 19.9714H32.4143ZM30.2571 14.7143V13.2143V14.7143ZM21.9 9V11.0571H24.9V9H21.9ZM21.9 11.0571C21.9 13.9054 24.2089 16.2143 27.0571 16.2143V13.2143C25.8658 13.2143 24.9 12.2485 24.9 11.0571H21.9ZM18.2714 14.7143V14.4857H15.2714V14.7143H18.2714ZM14.4857 18.5C16.5765 18.5 18.2714 16.8051 18.2714 14.7143H15.2714C15.2714 15.1482 14.9197 15.5 14.4857 15.5V18.5ZM28.7857 27.7429V22.9429H25.7857V27.7429H28.7857ZM23.6286 17.7857H23.349V20.7857H23.6286V17.7857ZM23.349 17.7857H23.1714V20.7857H23.349V17.7857ZM28.7857 22.9429C28.7857 20.0946 26.4768 17.7857 23.6286 17.7857V20.7857C24.8199 20.7857 25.7857 21.7515 25.7857 22.9429H28.7857ZM24.9 18.8286V13.3429H21.9V18.8286H24.9ZM21.3429 22.3857C23.0376 22.3857 24.4523 21.202 24.8118 19.6176L21.8862 18.9538C21.83 19.2017 21.6061 19.3857 21.3429 19.3857V22.3857ZM24.8118 19.6176C24.8697 19.3624 24.9 19.0981 24.9 18.8286H21.9C21.9 18.8733 21.895 18.9149 21.8862 18.9538L24.8118 19.6176ZM17.7857 22.9429V32.5429H20.7857V22.9429H17.7857ZM21.3429 19.3857C19.3783 19.3857 17.7857 20.9783 17.7857 22.9429H20.7857C20.7857 22.6352 21.0352 22.3857 21.3429 22.3857V19.3857ZM23.6286 11.1571H18.6V14.1571H23.6286V11.1571ZM18.6 11.1571C16.7617 11.1571 15.2714 12.6474 15.2714 14.4857H18.2714C18.2714 14.3042 18.4185 14.1571 18.6 14.1571V11.1571ZM14.7143 15.5H14.4857V18.5H14.7143V15.5ZM14.4857 15.5H12.6571V18.5H14.4857V15.5ZM7.5 20.6571V26.6H10.5V20.6571H7.5ZM12.6571 15.5C9.80893 15.5 7.5 17.8089 7.5 20.6571H10.5C10.5 19.4658 11.4658 18.5 12.6571 18.5V15.5ZM35.4143 19.9714V18.3714H32.4143V19.9714H35.4143ZM35.4143 18.3714C35.4143 15.5232 33.1054 13.2143 30.2571 13.2143V16.2143C31.4485 16.2143 32.4143 17.1801 32.4143 18.3714H35.4143ZM27.0571 16.2143L30.2571 16.2143V13.2143L27.0571 13.2143V16.2143Z" fill="#191919"/>
</svg>
