<svg width="48" height="48" viewBox="0 0 48 48" fill="none" xmlns="http://www.w3.org/2000/svg">
<path d="M14.3055 24.4389C11.6659 24.4389 9.54814 23.7329 7.95212 22.3211C6.35611 20.9706 5.5581 19.0676 5.5581 16.6122C5.5581 14.2182 6.32542 12.3153 7.86005 10.9034C9.39468 9.49154 11.359 8.78561 13.753 8.78561C16.5154 8.78561 18.6025 9.73708 20.0143 11.64C21.4262 13.6044 22.1321 16.336 22.1321 19.835C22.1321 25.1755 20.751 29.5338 17.9886 32.91C15.2263 36.2862 11.3897 38.3119 6.47887 38.9872L6.47887 32.5417C8.75013 32.2348 10.6224 31.2833 12.0956 29.6873C13.5689 28.0913 14.3055 26.3418 14.3055 24.4389ZM34.5627 24.4389C31.9231 24.4389 29.8053 23.7329 28.2093 22.3211C26.6133 20.9706 25.8153 19.0676 25.8153 16.6122C25.8153 14.2182 26.5826 12.3153 28.1172 10.9034C29.6518 9.49154 31.6162 8.78561 34.0102 8.78561C36.7725 8.78561 38.8596 9.73708 40.2715 11.64C41.6834 13.6044 42.3893 16.336 42.3893 19.835C42.3893 25.1755 41.0081 29.5338 38.2458 32.91C35.4834 36.2862 31.6469 38.3119 26.736 38.9872L26.736 32.5417C29.0073 32.2348 30.8795 31.2833 32.3528 29.6873C33.826 28.0913 34.5627 26.3418 34.5627 24.4389Z" fill="#232323"/>
</svg>
