<svg width="74" height="73" viewBox="0 0 74 73" fill="none" xmlns="http://www.w3.org/2000/svg">
<path d="M45.6928 9.38574C45.6928 7.1766 43.902 5.38574 41.6928 5.38574C39.4837 5.38574 37.6928 7.1766 37.6928 9.38574H45.6928ZM50.0357 22.4215V26.4215V22.4215ZM46.5571 52.1429C46.5571 54.352 48.348 56.1429 50.5571 56.1429C52.7663 56.1429 54.5571 54.352 54.5571 52.1429H46.5571ZM28.3071 63.0929C28.3071 65.302 30.098 67.0929 32.3071 67.0929C34.5163 67.0929 36.3071 65.302 36.3071 63.0929H28.3071ZM21.8786 31.6357C24.0877 31.6357 25.8786 29.8449 25.8786 27.6357C25.8786 25.4266 24.0877 23.6357 21.8786 23.6357V31.6357ZM4.84285 49.5357C4.84285 51.7449 6.63371 53.5357 8.84285 53.5357C11.052 53.5357 12.8428 51.7449 12.8428 49.5357H4.84285ZM61.6786 34.4143C61.6786 36.6235 63.4694 38.4143 65.6786 38.4143C67.8877 38.4143 69.6786 36.6235 69.6786 34.4143H61.6786ZM57.3357 22.4215V18.4215H57.3357L57.3357 22.4215ZM37.6928 9.38574V14.0786H45.6928V9.38574H37.6928ZM37.6928 14.0786C37.6928 20.8954 43.2189 26.4215 50.0357 26.4215V18.4215C47.6372 18.4215 45.6928 16.4771 45.6928 14.0786H37.6928ZM30.5714 22.4215V21.9H22.5714V22.4215H30.5714ZM21.3571 31.6357C26.446 31.6357 30.5714 27.5104 30.5714 22.4215H22.5714C22.5714 23.0921 22.0278 23.6357 21.3571 23.6357V31.6357ZM54.5571 52.1429V41.1929H46.5571V52.1429H54.5571ZM42.2143 28.85H41.5766V36.85H42.2143V28.85ZM41.5766 28.85H41.1714V36.85H41.5766V28.85ZM54.5571 41.1929C54.5571 34.3761 49.031 28.85 42.2143 28.85V36.85C44.6128 36.85 46.5571 38.7944 46.5571 41.1929H54.5571ZM45.6928 31.8072V19.2929H37.6928V31.8072H45.6928ZM37 40.5C41.142 40.5 44.5988 37.607 45.4774 33.7352L37.6757 31.9649C37.6059 32.2728 37.3247 32.5 37 32.5V40.5ZM45.4774 33.7352C45.619 33.1113 45.6928 32.4654 45.6928 31.8072H37.6928C37.6928 31.8658 37.6864 31.918 37.6757 31.9649L45.4774 33.7352ZM28.3071 41.1929V63.0929H36.3071V41.1929H28.3071ZM37 32.5C32.1991 32.5 28.3071 36.3919 28.3071 41.1929H36.3071C36.3071 40.8102 36.6173 40.5 37 40.5V32.5ZM42.2143 13.7286H30.7429V21.7286H42.2143V13.7286ZM30.7429 13.7286C26.2299 13.7286 22.5714 17.3871 22.5714 21.9H30.5714C30.5714 21.8054 30.6482 21.7286 30.7429 21.7286V13.7286ZM21.8786 23.6357H21.3571V31.6357H21.8786V23.6357ZM21.3571 23.6357H17.1857V31.6357H21.3571V23.6357ZM4.84285 35.9786V49.5357H12.8428V35.9786H4.84285ZM17.1857 23.6357C10.3689 23.6357 4.84285 29.1618 4.84285 35.9786H12.8428C12.8428 33.5801 14.7872 31.6357 17.1857 31.6357V23.6357ZM69.6786 34.4143V30.7643H61.6786V34.4143H69.6786ZM69.6786 30.7643C69.6786 23.9475 64.1525 18.4215 57.3357 18.4215V26.4215C59.7342 26.4215 61.6786 28.3658 61.6786 30.7643H69.6786ZM50.0357 26.4215H57.3357L57.3357 18.4215L50.0357 18.4215V26.4215Z" fill="white"/>
</svg>
