<svg width="32" height="32" viewBox="0 0 32 32" fill="none" xmlns="http://www.w3.org/2000/svg">
<path d="M22.9466 12L17.1066 3.25336C16.8533 2.88003 16.4266 2.69336 16 2.69336C15.5733 2.69336 15.1466 2.88003 14.8933 3.26669L9.05331 12H2.66665C1.93331 12 1.33331 12.6 1.33331 13.3334C1.33331 13.4534 1.34665 13.5734 1.38665 13.6934L4.77331 26.0534C5.07998 27.1734 6.10665 28 7.33331 28H24.6666C25.8933 28 26.92 27.1734 27.24 26.0534L30.6266 13.6934L30.6666 13.3334C30.6666 12.6 30.0666 12 29.3333 12H22.9466ZM12 12L16 6.13336L20 12H12ZM16 22.6667C14.5333 22.6667 13.3333 21.4667 13.3333 20C13.3333 18.5334 14.5333 17.3334 16 17.3334C17.4666 17.3334 18.6666 18.5334 18.6666 20C18.6666 21.4667 17.4666 22.6667 16 22.6667Z" fill="#232323"/>
</svg>
